<?xml version="1.0" encoding="UTF-8" standalone="no"?>
<!-- Created with Inkscape (http://www.inkscape.org/) -->

<svg
   width="135.46666mm"
   height="135.46666mm"
   viewBox="0 0 135.46666 135.46666"
   version="1.1"
   id="svg1"
   inkscape:version="1.4.2 (ebf0e940, 2025-05-08)"
   sodipodi:docname="wire-frame.svg"
   inkscape:export-filename="wire-frame.pdf"
   inkscape:export-xdpi="96"
   inkscape:export-ydpi="96"
   xmlns:inkscape="http://www.inkscape.org/namespaces/inkscape"
   xmlns:sodipodi="http://sodipodi.sourceforge.net/DTD/sodipodi-0.dtd"
   xmlns="http://www.w3.org/2000/svg"
   xmlns:svg="http://www.w3.org/2000/svg">
  <sodipodi:namedview
     id="namedview1"
     pagecolor="#ffffff"
     bordercolor="#000000"
     borderopacity="0.25"
     inkscape:showpageshadow="2"
     inkscape:pageopacity="0.0"
     inkscape:pagecheckerboard="0"
     inkscape:deskcolor="#d1d1d1"
     inkscape:document-units="px"
     inkscape:zoom="1"
     inkscape:cx="1642"
     inkscape:cy="1632"
     inkscape:window-width="3840"
     inkscape:window-height="2107"
     inkscape:window-x="1792"
     inkscape:window-y="25"
     inkscape:window-maximized="0"
     inkscape:current-layer="g52"
     showgrid="false"
     inkscape:export-bgcolor="#ffffff00">
    <inkscape:grid
       id="grid5"
       units="px"
       originx="-414.13569"
       originy="-179.4058"
       spacingx="0.26458333"
       spacingy="0.26458333"
       empcolor="#0099e5"
       empopacity="0.30196078"
       color="#0099e5"
       opacity="0.14901961"
       empspacing="5"
       enabled="true"
       visible="false" />
    <inkscape:page
       x="0"
       y="0"
       width="135.46666"
       height="135.46666"
       id="page2"
       margin="0"
       bleed="0" />
  </sodipodi:namedview>
  <defs
     id="defs1" />
  <g
     inkscape:label="Layer 1"
     inkscape:groupmode="layer"
     id="layer1"
     transform="translate(-439.66286,-191.81017)">
    <g
       id="g84"
       inkscape:export-filename="logo-contrast.png"
       inkscape:export-xdpi="96"
       inkscape:export-ydpi="96">
      <rect
         style="font-variation-settings:'wght' 500;fill:#061732;fill-opacity:1;stroke:#001f41;stroke-width:0.132292;stroke-miterlimit:0"
         id="rect76"
         width="135.33438"
         height="135.33437"
         x="439.72903"
         y="191.87633"
         ry="2.9853168" />
      <circle
         style="font-variation-settings:'wght' 500;fill:#2414a3;fill-opacity:1;stroke:#001f41;stroke-width:0.132292;stroke-miterlimit:0"
         id="circle76"
         cx="507.39621"
         cy="259.54352"
         r="66.079689" />
      <path
         d="m 515.78564,211.53789 -1.41208,45.29855 h 1.91046 l 14.45307,-45.29855 h 16.28047 l -20.51672,59.84396 h -24.91908 l 2.24271,-38.31676 -11.13051,38.31676 h -24.91909 l 0.58145,-59.84396 h 16.28047 l -1.49515,45.29855 h 1.91046 l 14.53614,-45.29855 z"
         id="path76"
         style="font-size:83.0901px;font-family:'Fugaz One';-inkscape-font-specification:'Fugaz One';text-align:center;text-anchor:middle;fill:#fcf4e8;fill-opacity:1;stroke:#061732;stroke-width:0.132292;stroke-miterlimit:0;stroke-opacity:1"
         aria-label="W" />
      <circle
         id="circle77"
         style="fill:#f9f9f9;stroke:#001f41;stroke-width:0.264583"
         cx="563.37854"
         cy="202.24498"
         r="0.0078862915" />
      <circle
         id="circle78"
         style="fill:#f9f9f9;stroke:#001f41;stroke-width:0.264583"
         cx="564.94495"
         cy="273.40457"
         r="0.0078862915" />
      <circle
         id="circle79"
         style="fill:#f9f9f9;stroke:#001f41;stroke-width:0.264583"
         cx="559.5744"
         cy="273.40457"
         r="0.0078862915" />
      <path
         id="path79"
         style="fill:#f9ead2;fill-opacity:1;stroke:#f9ead2;stroke-width:4.23333;stroke-miterlimit:0;stroke-dasharray:none;stroke-opacity:1"
         d="m 563.23883,239.24467 a 7.241647,14.724271 32.303535 0 1 -3.03113,17.03694 7.241647,14.724271 32.303535 0 1 -13.76864,7.03355 7.241647,14.724271 32.303535 0 1 3.03113,-17.03697 7.241647,14.724271 32.303535 0 1 13.76864,-7.03352 z m -48.81073,60.65157 c 38.13813,-42.7261 38.13813,-42.7261 38.13813,-42.7261" />
      <path
         style="fill:#412b08;fill-opacity:1;stroke:#061732;stroke-width:1.32292;stroke-miterlimit:0;stroke-dasharray:none;stroke-opacity:1"
         d="m 458.74323,277.06477 h 97.34091 l -24.44977,13.38097 v 5.92187 h -50.29015 v -5.09085 z"
         id="path80" />
      <path
         style="font-size:7.52901px;font-family:Cutive;-inkscape-font-specification:Cutive;text-align:center;text-anchor:middle;fill:#fcf4e8;fill-opacity:1;stroke:#fcf4e8;stroke-width:0.264584;stroke-miterlimit:0;stroke-opacity:1"
         d="m 468.04142,310.43155 q -0.12822,0 -0.2015,-0.0922 -0.0696,-0.0959 -0.0696,-0.21764 0,-0.14017 0.0623,-0.23977 0.0623,-0.0996 0.20151,-0.0996 h 0.96725 v -5.02409 h -1.79528 l -0.10991,1.05868 q -0.0146,0.14017 -0.0953,0.19551 -0.0769,0.0517 -0.20518,0.0517 -0.12091,0 -0.18685,-0.0812 -0.0623,-0.0812 -0.0623,-0.21396 l 0.055,-1.37221 q 0.007,-0.14386 0.0513,-0.21395 0.0476,-0.0738 0.17219,-0.0738 h 5.28326 q 0.2125,0 0.22349,0.28772 l 0.0549,1.37221 q 0,0.1328 -0.066,0.21396 -0.0623,0.0812 -0.18319,0.0812 -0.12824,0 -0.20884,-0.0553 -0.0769,-0.0553 -0.0916,-0.19182 l -0.11358,-1.05867 h -1.86855 v 5.02408 h 0.97091 q 0.13923,0 0.19785,0.0996 0.0623,0.0996 0.0623,0.23977 0,0.12172 -0.0697,0.21764 -0.0697,0.0922 -0.19784,0.0922 z m 6.10762,0.10329 q -0.37371,0 -0.67047,-0.15494 -0.29678,-0.15492 -0.46898,-0.43158 -0.1722,-0.28034 -0.1722,-0.64921 0,-0.39839 0.1722,-0.6566 0.17586,-0.26191 0.46898,-0.41683 0.29676,-0.15862 0.66681,-0.23977 0.37005,-0.0849 0.76574,-0.12542 0.3957,-0.0405 0.76208,-0.0738 v -0.59757 q 0,-0.19551 -0.11725,-0.30617 -0.11357,-0.11066 -0.28943,-0.15861 -0.17587,-0.048 -0.36639,-0.048 -0.3444,0 -0.56789,0.048 -0.2235,0.048 -0.41036,0.14755 -0.18319,0.0996 -0.41767,0.25083 -0.0697,0.0405 -0.12824,0.0405 -0.12456,0 -0.22349,-0.11804 -0.099,-0.11804 -0.099,-0.24714 0,-0.22132 0.17953,-0.36519 0.18319,-0.14755 0.46164,-0.2287 0.27845,-0.0849 0.57522,-0.11804 0.29677,-0.0369 0.52393,-0.0369 0.62285,0 0.97091,0.17337 0.35173,0.16968 0.49463,0.54594 0.14288,0.37625 0.14288,0.99597 v 1.85913 q 0,0.11434 0.0367,0.19181 0.0403,0.0737 0.12456,0.0737 0.10992,0 0.24181,-0.0996 0.1319,-0.0996 0.25281,-0.1992 0.12457,-0.0996 0.2125,-0.0996 0.0842,0 0.1722,0.11066 0.0879,0.10697 0.0879,0.21026 0,0.14755 -0.10991,0.27666 -0.10991,0.12911 -0.27845,0.2287 -0.16487,0.0959 -0.34074,0.15124 -0.1722,0.0553 -0.29677,0.0553 -0.60454,0 -0.73277,-0.59758 -0.26745,0.31355 -0.69979,0.4611 -0.43234,0.14755 -0.92329,0.14755 z m 0.25647,-0.63816 q 0.3847,0 0.69979,-0.14017 0.31509,-0.14017 0.5679,-0.34305 v -1.07344 q -0.28944,0.0332 -0.64484,0.0701 -0.35172,0.0332 -0.67048,0.11804 -0.31875,0.0849 -0.52759,0.26191 -0.20517,0.17706 -0.20517,0.48691 0,0.31354 0.23081,0.46848 0.23083,0.15123 0.54958,0.15123 z m 3.61255,0.53487 q -0.15388,0 -0.22716,-0.0885 -0.0733,-0.0885 -0.0733,-0.2287 0,-0.13649 0.066,-0.23239 0.0697,-0.0996 0.2125,-0.0996 h 0.56789 v -4.97244 l -0.861,0.2287 q -0.0147,0 -0.0183,0.004 -0.004,0.004 -0.022,0.004 -0.11357,0 -0.2015,-0.0996 -0.0879,-0.10328 -0.0879,-0.21763 0,-0.15862 0.0806,-0.20657 0.0806,-0.0517 0.20152,-0.0885 l 1.41057,-0.40946 q 0.022,-0.007 0.0549,-0.007 0.0769,0 0.13556,0.048 0.0586,0.048 0.0586,0.1328 v 3.94697 q 0.42501,-0.29141 0.89032,-0.60864 0.4653,-0.32093 0.87931,-0.59389 h -0.38836 q -0.14289,0 -0.21251,-0.0959 -0.066,-0.0996 -0.066,-0.23608 0,-0.14017 0.0732,-0.2287 0.0733,-0.0885 0.22715,-0.0885 h 1.69636 q 0.12823,0 0.19785,0.0405 0.0732,0.0369 0.0732,0.15861 0,0.13649 -0.0623,0.2951 -0.0623,0.15494 -0.20152,0.15494 h -0.40667 q -0.14657,0 -0.25647,0.0812 -0.10626,0.0775 -0.20152,0.15124 l -1.06251,0.80785 1.06251,1.3759 q 0.1319,0.18444 0.2528,0.26559 0.12458,0.0775 0.27846,0.0959 0.15754,0.0185 0.39203,0.0185 h 0.0549 q 0.24548,0 0.33341,0.0627 0.0916,0.0627 0.0916,0.27666 0,0.21763 -0.1319,0.28772 -0.12823,0.0664 -0.37737,0.0664 h -1.59743 q -0.13923,0 -0.20884,-0.0959 -0.0696,-0.0996 -0.0696,-0.23608 0,-0.14017 0.0696,-0.2287 0.0732,-0.0885 0.23081,-0.0885 h 0.21617 l -1.10281,-1.48657 -0.67415,0.41314 v 1.07343 h 0.5569 q 0.13923,0 0.19785,0.0996 0.0623,0.0996 0.0623,0.23978 0,0.12172 -0.0696,0.21763 -0.0697,0.0922 -0.19785,0.0922 z m 7.5072,0.0922 q -0.67048,0 -1.19075,-0.26928 -0.52026,-0.27296 -0.81703,-0.76726 -0.29678,-0.49798 -0.29678,-1.17672 0,-0.67135 0.26747,-1.18039 0.27111,-0.50905 0.76574,-0.79308 0.49827,-0.28773 1.18342,-0.28773 0.37004,0 0.71444,0.13279 0.34807,0.1328 0.62286,0.37626 0.27844,0.24346 0.43966,0.57913 0.16487,0.33568 0.16487,0.74144 0,0.18444 -0.0769,0.26559 -0.0769,0.0775 -0.2125,0.10329 -0.13557,0.0258 -0.31143,0.0443 l -2.77719,0.0775 q 0,0.48323 0.20518,0.81521 0.20517,0.3283 0.5569,0.49799 0.35172,0.16599 0.79139,0.16599 0.31142,0 0.52759,-0.0812 0.21617,-0.0812 0.38104,-0.21025 0.16853,-0.1328 0.32975,-0.28404 0.11357,-0.0959 0.24181,-0.0959 0.15022,0 0.24914,0.0922 0.10258,0.0885 0.10258,0.23976 0,0.23609 -0.19418,0.42421 -0.19052,0.18813 -0.48363,0.32092 -0.2931,0.12911 -0.61185,0.19919 -0.31876,0.0701 -0.57156,0.0701 z m -1.53882,-2.67435 2.20197,-0.048 q 0.10259,-0.007 0.18685,-0.0405 0.0843,-0.0332 0.0843,-0.11804 0,-0.35411 -0.15022,-0.56437 -0.14655,-0.21395 -0.38104,-0.30617 -0.23449,-0.0959 -0.49095,-0.0959 -0.6485,0 -1.02588,0.32092 -0.37738,0.31723 -0.42501,0.8521 z m 4.83993,0.32461 q -0.15754,0 -0.26746,-0.11066 -0.10625,-0.11066 -0.10625,-0.26927 0,-0.15125 0.10992,-0.26191 0.10992,-0.11435 0.26379,-0.11435 h 2.71856 q 0.15389,0 0.26381,0.11435 0.10991,0.11066 0.10991,0.26191 0,0.15861 -0.10991,0.26927 -0.10626,0.11066 -0.26381,0.11066 z m 6.37141,2.34974 q -0.67781,0 -1.19074,-0.27296 -0.51294,-0.27667 -0.79872,-0.77834 -0.28578,-0.50535 -0.28578,-1.18777 0,-0.6898 0.28578,-1.18778 0.28578,-0.50167 0.79872,-0.77464 0.51293,-0.27297 1.19074,-0.27297 0.67049,0 1.16877,0.27666 0.50194,0.27666 0.7804,0.78201 0.27844,0.50167 0.27844,1.17672 0,0.67504 -0.27844,1.1804 -0.27846,0.50167 -0.7804,0.78202 -0.50195,0.27665 -1.16877,0.27665 z m 0,-0.62709 q 0.45432,0 0.76941,-0.21025 0.31875,-0.21026 0.48362,-0.57545 0.16488,-0.36518 0.16488,-0.82628 0,-0.46479 -0.16488,-0.82628 -0.16487,-0.36519 -0.48362,-0.57176 -0.31509,-0.21026 -0.76941,-0.21026 -0.46531,0 -0.79139,0.20657 -0.32607,0.20657 -0.49828,0.57176 -0.17219,0.36149 -0.17219,0.82997 0,0.47215 0.17219,0.83735 0.17221,0.36149 0.49828,0.56806 0.32608,0.20657 0.79139,0.20657 z m 3.05931,0.53487 q -0.15388,0 -0.22716,-0.0885 -0.0732,-0.0885 -0.0732,-0.2287 0,-0.13649 0.066,-0.23239 0.0697,-0.0996 0.2125,-0.0996 h 0.80971 V 306.942 h -0.65216 q -0.15388,0 -0.22716,-0.0885 -0.0733,-0.0885 -0.0733,-0.2287 0,-0.13648 0.066,-0.2324 0.0697,-0.0996 0.2125,-0.0996 h 0.67415 v -0.38732 q 0,-0.97752 0.54591,-1.43124 0.54957,-0.4574 1.53515,-0.4574 0.12091,0 0.21251,0.0738 0.0953,0.0701 0.0953,0.19919 v 0.63446 q 0,0.15493 -0.0879,0.2287 -0.0879,0.0738 -0.22716,0.0738 -0.13556,0 -0.23448,-0.0664 -0.099,-0.0701 -0.099,-0.21396 v -0.25452 q -0.41401,0.0369 -0.63018,0.18075 -0.21249,0.14018 -0.28944,0.42421 -0.0769,0.28403 -0.0769,0.74144 v 0.25452 h 1.94916 v -0.38732 q 0,-0.97752 0.54592,-1.43124 0.54957,-0.4574 1.53514,-0.4574 0.12091,0 0.2125,0.0738 0.0953,0.0701 0.0953,0.19919 v 0.63446 q 0,0.15493 -0.0879,0.2287 -0.0879,0.0738 -0.22716,0.0738 -0.13556,0 -0.23448,-0.0664 -0.099,-0.0701 -0.099,-0.21395 v -0.25452 q -0.41401,0.0369 -0.63018,0.18075 -0.2125,0.14018 -0.28944,0.42421 -0.0769,0.28403 -0.0769,0.74144 v 0.25452 h 0.80971 q 0.13922,0 0.20151,0.0996 0.0623,0.0996 0.0623,0.23977 0,0.12174 -0.0733,0.21764 -0.0696,0.0922 -0.19785,0.0922 h -0.80238 v 2.84034 h 0.93062 q 0.13922,0 0.2015,0.0996 0.0623,0.0996 0.0623,0.23977 0,0.12172 -0.0733,0.21764 -0.0697,0.0922 -0.19784,0.0922 h -2.08839 q -0.15388,0 -0.22716,-0.0885 -0.0733,-0.0885 -0.0733,-0.2287 0,-0.13649 0.066,-0.23239 0.0696,-0.0996 0.2125,-0.0996 h 0.44332 v -2.84034 h -1.94916 v 2.84034 h 0.56423 q 0.13923,0 0.20151,0.0996 0.0623,0.0996 0.0623,0.23977 0,0.12172 -0.0733,0.21764 -0.0696,0.0922 -0.19784,0.0922 z m 9.80076,0.0996 q -0.28578,0 -0.53126,-0.14018 -0.24548,-0.14016 -0.3957,-0.36887 -0.14655,-0.23239 -0.14655,-0.50536 v -2.61164 h -0.54957 q -0.15388,0 -0.22716,-0.0885 -0.0732,-0.0885 -0.0732,-0.2287 0,-0.13649 0.066,-0.23608 0.0696,-0.0996 0.2125,-0.0996 h 0.57156 q 0,-0.16967 0.007,-0.41314 0.011,-0.24345 0.0513,-0.48322 0.0403,-0.23977 0.12824,-0.39839 0.0879,-0.1623 0.24547,-0.1623 0.16488,0 0.29312,0.0922 v 0.0738 q 0,0.048 0.004,0.10697 0.004,0.059 0.004,0.11067 v 1.07342 h 0.95992 q 0.13923,0 0.20152,0.10329 0.0623,0.0996 0.0623,0.23977 0,0.12172 -0.0732,0.21764 -0.0697,0.0922 -0.19785,0.0922 h -0.9526 v 2.49729 q 0,0.29141 0.13189,0.41314 0.13191,0.12173 0.33342,0.12173 0.17586,0 0.27845,-0.059 0.10625,-0.0627 0.17586,-0.14018 0.0697,-0.0775 0.13923,-0.13648 0.0697,-0.0627 0.1722,-0.0627 0.11724,0 0.19052,0.0812 0.0732,0.0812 0.0732,0.1992 0,0.21763 -0.18686,0.37994 -0.1832,0.15862 -0.45065,0.24346 -0.26746,0.0885 -0.51661,0.0885 z m 1.91985,-0.0996 q -0.15755,0 -0.21984,-0.0812 -0.0586,-0.0848 -0.0586,-0.2287 0,-0.14017 0.055,-0.23977 0.0549,-0.0996 0.19784,-0.0996 h 0.47263 v -4.97244 l -0.861,0.2287 q -0.0147,0 -0.0183,0.004 0,0.004 -0.0183,0.004 -0.11359,0 -0.20152,-0.0996 -0.0916,-0.10328 -0.0916,-0.21763 0,-0.15862 0.0843,-0.20657 0.0806,-0.0517 0.2015,-0.0885 l 1.41058,-0.40946 q 0.022,-0.007 0.0513,-0.007 0.0769,0 0.13556,0.048 0.0586,0.048 0.0586,0.1328 v 2.53048 q 0.21617,-0.25821 0.57523,-0.46846 0.35905,-0.21026 0.81337,-0.21026 0.6888,0 1.09182,0.40576 0.40302,0.40207 0.40302,1.09925 v 2.22801 h 0.5972 q 0.1429,0 0.18319,0.0959 0.0439,0.0959 0.0439,0.23608 0,0.11066 -0.0586,0.21395 -0.0586,0.10328 -0.17586,0.10328 h -1.79162 q -0.15754,0 -0.21983,-0.0812 -0.0586,-0.0848 -0.0586,-0.2287 0,-0.14017 0.0549,-0.23977 0.0586,-0.0996 0.20151,-0.0996 h 0.47996 v -2.16162 q 0,-0.44264 -0.21983,-0.69348 -0.21983,-0.25083 -0.66681,-0.25083 -0.42135,0 -0.74377,0.25083 -0.32241,0.25084 -0.50927,0.557 v 2.2981 h 0.60087 q 0.14289,0 0.18319,0.0959 0.0403,0.0959 0.0403,0.23608 0,0.11066 -0.0586,0.21395 -0.0549,0.10328 -0.17219,0.10328 z m 7.58781,0.0922 q -0.67048,0 -1.19075,-0.26928 -0.52026,-0.27296 -0.81703,-0.76726 -0.29678,-0.49798 -0.29678,-1.17672 0,-0.67135 0.26746,-1.18039 0.27112,-0.50905 0.76575,-0.79308 0.49827,-0.28773 1.18341,-0.28773 0.37005,0 0.71445,0.13279 0.34806,0.1328 0.62286,0.37626 0.27844,0.24346 0.43966,0.57913 0.16487,0.33568 0.16487,0.74144 0,0.18444 -0.0769,0.26559 -0.0769,0.0775 -0.21251,0.10329 -0.13556,0.0258 -0.31142,0.0442 l -2.77719,0.0775 q 0,0.48323 0.20518,0.81521 0.20517,0.3283 0.5569,0.49799 0.35172,0.16599 0.79139,0.16599 0.31142,0 0.52759,-0.0812 0.21616,-0.0812 0.38104,-0.21025 0.16853,-0.1328 0.32975,-0.28404 0.11357,-0.0959 0.2418,-0.0959 0.15022,0 0.24915,0.0922 0.10258,0.0885 0.10258,0.23976 0,0.23609 -0.19418,0.42421 -0.19052,0.18813 -0.48363,0.32092 -0.2931,0.12911 -0.61186,0.19919 -0.31875,0.0701 -0.57155,0.0701 z m -1.53882,-2.67435 2.20197,-0.048 q 0.10259,-0.007 0.18685,-0.0405 0.0843,-0.0332 0.0843,-0.11804 0,-0.35411 -0.15022,-0.56437 -0.14656,-0.21395 -0.38104,-0.30617 -0.23449,-0.0959 -0.49096,-0.0959 -0.6485,0 -1.02587,0.32092 -0.37738,0.31723 -0.42501,0.8521 z m 8.23997,2.68173 q -0.32975,0 -0.3847,-0.28773 l -1.40325,-5.48517 h -0.60087 q -0.12824,0 -0.19785,-0.0922 -0.0697,-0.0959 -0.0697,-0.21763 0,-0.14018 0.0586,-0.23977 0.0623,-0.0996 0.20151,-0.0996 h 1.82459 q 0.13923,0 0.20152,0.0996 0.0623,0.0996 0.0623,0.23977 0,0.12172 -0.0733,0.21763 -0.0697,0.0922 -0.19784,0.0922 h -0.34441 l 1.04053,4.26788 1.18708,-4.26788 h -0.33706 q -0.12824,0 -0.20152,-0.0922 -0.0696,-0.0959 -0.0696,-0.21763 0,-0.14018 0.0623,-0.23977 0.0623,-0.0996 0.2015,-0.0996 h 1.297 q 0.13923,0 0.20151,0.0996 0.0623,0.0996 0.0623,0.23977 0,0.12172 -0.0732,0.21763 -0.0696,0.0922 -0.19785,0.0922 h -0.36638 l 1.01855,4.19412 1.15777,-4.19412 h -0.44333 q -0.12823,0 -0.2015,-0.0922 -0.0696,-0.0959 -0.0696,-0.21763 0,-0.14018 0.0623,-0.23977 0.0623,-0.0996 0.20152,-0.0996 h 1.82093 q 0.13922,0 0.2015,0.0996 0.0623,0.0996 0.0623,0.23977 0,0.12172 -0.0733,0.21763 -0.0696,0.0922 -0.19784,0.0922 h -0.6082 l -1.59743,5.52944 q -0.0367,0.0996 -0.15022,0.16969 -0.11358,0.0738 -0.2528,0.0738 -0.13923,0 -0.24182,-0.07 -0.10258,-0.0664 -0.1209,-0.20288 l -0.94527,-4.01337 -1.08817,4.04288 q -0.0367,0.10328 -0.15753,0.17337 -0.12091,0.07 -0.26014,0.07 z m 8.37553,-0.007 q -0.67048,0 -1.19074,-0.26928 -0.52027,-0.27296 -0.81704,-0.76725 -0.29677,-0.49799 -0.29677,-1.17673 0,-0.67135 0.26746,-1.18039 0.27112,-0.50905 0.76574,-0.79308 0.49828,-0.28773 1.18342,-0.28773 0.37005,0 0.71445,0.13279 0.34806,0.1328 0.62285,0.37626 0.27845,0.24346 0.43966,0.57914 0.16487,0.33567 0.16487,0.74143 0,0.18444 -0.0769,0.26559 -0.0769,0.0775 -0.2125,0.10329 -0.13556,0.0258 -0.31143,0.0443 l -2.77719,0.0775 q 0,0.48323 0.20518,0.81521 0.20518,0.3283 0.5569,0.49799 0.35173,0.16599 0.79139,0.16599 0.31143,0 0.5276,-0.0812 0.21616,-0.0812 0.38103,-0.21025 0.16854,-0.1328 0.32975,-0.28404 0.11358,-0.0959 0.24181,-0.0959 0.15022,0 0.24915,0.0922 0.10258,0.0885 0.10258,0.23976 0,0.23609 -0.19418,0.42422 -0.19053,0.18812 -0.48363,0.32091 -0.29311,0.12911 -0.61186,0.1992 -0.31875,0.0701 -0.57156,0.0701 z m -1.53881,-2.67435 2.20197,-0.048 q 0.10259,-0.007 0.18685,-0.0405 0.0842,-0.0332 0.0842,-0.11804 0,-0.35412 -0.15021,-0.56438 -0.14656,-0.21395 -0.38105,-0.30617 -0.23449,-0.0959 -0.49095,-0.0959 -0.6485,0 -1.02587,0.32091 -0.37738,0.31724 -0.42501,0.8521 z m 6.31646,2.67435 q -0.67049,0 -1.19075,-0.26928 -0.52026,-0.27296 -0.81704,-0.76725 -0.29677,-0.49799 -0.29677,-1.17673 0,-0.67135 0.26746,-1.18039 0.27112,-0.50905 0.76574,-0.79308 0.49828,-0.28773 1.18343,-0.28773 0.37004,0 0.71444,0.13279 0.34806,0.1328 0.62286,0.37626 0.27844,0.24346 0.43965,0.57914 0.16487,0.33567 0.16487,0.74143 0,0.18444 -0.0769,0.26559 -0.0769,0.0775 -0.21251,0.10329 -0.13556,0.0258 -0.31143,0.0443 l -2.77718,0.0775 q 0,0.48323 0.20518,0.81521 0.20517,0.3283 0.55689,0.49799 0.35173,0.16599 0.7914,0.16599 0.31142,0 0.52759,-0.0812 0.21616,-0.0812 0.38103,-0.21025 0.16854,-0.1328 0.32975,-0.28404 0.11358,-0.0959 0.24181,-0.0959 0.15022,0 0.24915,0.0922 0.10258,0.0885 0.10258,0.23976 0,0.23609 -0.19418,0.42422 -0.19052,0.18812 -0.48363,0.32091 -0.2931,0.12911 -0.61186,0.1992 -0.31875,0.0701 -0.57155,0.0701 z m -1.53882,-2.67435 2.20197,-0.048 q 0.10259,-0.007 0.18685,-0.0405 0.0843,-0.0332 0.0843,-0.11804 0,-0.35412 -0.15022,-0.56438 -0.14656,-0.21395 -0.38104,-0.30617 -0.23449,-0.0959 -0.49095,-0.0959 -0.64851,0 -1.02588,0.32091 -0.37738,0.31724 -0.42501,0.8521 z m 4.29768,2.58213 q -0.15388,0 -0.22716,-0.0885 -0.0733,-0.0885 -0.0733,-0.2287 0,-0.13648 0.066,-0.23239 0.0697,-0.0996 0.2125,-0.0996 h 0.56789 v -4.97244 l -0.861,0.2287 q -0.0146,0 -0.0183,0.004 -0.004,0.004 -0.022,0.004 -0.11358,0 -0.20151,-0.0996 -0.0879,-0.10327 -0.0879,-0.21763 0,-0.15862 0.0806,-0.20657 0.0806,-0.0517 0.20151,-0.0885 l 1.41057,-0.40946 q 0.022,-0.007 0.0549,-0.007 0.0769,0 0.13556,0.048 0.0586,0.048 0.0586,0.1328 v 3.94697 q 0.42501,-0.29141 0.89032,-0.60864 0.4653,-0.32093 0.87931,-0.59389 h -0.38836 q -0.1429,0 -0.21251,-0.0959 -0.066,-0.0996 -0.066,-0.23608 0,-0.14017 0.0733,-0.2287 0.0733,-0.0885 0.22715,-0.0885 h 1.69636 q 0.12823,0 0.19784,0.0405 0.0733,0.0369 0.0733,0.15862 0,0.13648 -0.0623,0.29509 -0.0623,0.15494 -0.20152,0.15494 h -0.40668 q -0.14656,0 -0.25647,0.0812 -0.10626,0.0775 -0.20151,0.15124 l -1.06252,0.80785 1.06252,1.3759 q 0.1319,0.18444 0.2528,0.26559 0.12458,0.0775 0.27845,0.0959 0.15755,0.0185 0.39203,0.0185 h 0.0549 q 0.24547,0 0.3334,0.0627 0.0916,0.0627 0.0916,0.27666 0,0.21763 -0.13189,0.28772 -0.12823,0.0664 -0.37738,0.0664 h -1.59742 q -0.13923,0 -0.20885,-0.0959 -0.0697,-0.0996 -0.0697,-0.23608 0,-0.14017 0.0697,-0.2287 0.0733,-0.0885 0.23082,-0.0885 h 0.21617 l -1.10281,-1.48657 -0.67415,0.41314 v 1.07343 h 0.5569 q 0.13923,0 0.19785,0.0996 0.0623,0.0996 0.0623,0.23977 0,0.12172 -0.0697,0.21763 -0.0697,0.0922 -0.19785,0.0922 z m 6.29081,-1.82962 q -0.0916,0 -0.16121,-0.0664 -0.066,-0.0664 -0.066,-0.15862 0,-0.67135 -0.0697,-1.30582 -0.066,-0.63447 -0.13556,-1.25418 -0.066,-0.6234 -0.066,-1.25418 0,-0.2619 0.13922,-0.40207 0.14289,-0.14386 0.35906,-0.14386 0.22349,0 0.35906,0.14386 0.13556,0.14386 0.13556,0.41683 0,0.6234 -0.0697,1.2468 -0.066,0.61971 -0.13556,1.25418 -0.066,0.63446 -0.066,1.29844 0,0.0922 -0.066,0.15862 -0.066,0.0664 -0.15754,0.0664 z m -0.007,1.92184 q -0.27479,0 -0.46164,-0.18812 -0.18686,-0.18813 -0.18686,-0.46479 0,-0.27665 0.18686,-0.4611 0.18685,-0.18812 0.46164,-0.18812 0.27479,0 0.45797,0.18812 0.18686,0.18445 0.18686,0.4611 0,0.27666 -0.18686,0.46479 -0.18318,0.18812 -0.45797,0.18812 z"
         id="path81"
         aria-label="Take-off the Week!" />
      <ellipse
         id="ellipse81"
         style="fill:#7670b0;stroke:#7670b0;stroke-width:0.264583"
         cx="509.27399"
         cy="278.93982"
         rx="0.0037631926"
         ry="0.0034325267" />
    </g>
  </g>
</svg>
